HIERARCHY
ROOT Hips
{
	OFFSET -0.497949 75.553574 -4.112920
	CHANNELS 6 Xposition Yposition Zposition Xrotation Yrotation Zrotation
	JOINT Chest
	{
		OFFSET 0.024079 13.575363 1.364963
		CHANNELS 3 Xrotation Yrotation Zrotation
		JOINT Chest2
		{
			OFFSET -0.302759 18.739723 10.382566
			CHANNELS 3 Xrotation Yrotation Zrotation
			JOINT Chest3
			{
				OFFSET 0.631096 13.919640 5.353990
				CHANNELS 3 Xrotation Yrotation Zrotation
				JOINT Neck
				{
					OFFSET 0.326054 16.157364 6.119598
					CHANNELS 3 Xrotation Yrotation Zrotation
					JOINT Head
					{
						OFFSET -0.615430 9.446533 4.495775
						CHANNELS 3 Xrotation Yrotation Zrotation
						End Site
						{
							OFFSET -0.614993 9.477722 4.429695
						}
					}
				}
				JOINT LeftCollar
				{
					OFFSET 4.827046 11.518127 6.770281
					CHANNELS 3 Xrotation Yrotation Zrotation
					JOINT LeftUpArm
					{
						OFFSET 14.114599 -2.827652 -10.063898
						CHANNELS 3 Xrotation Yrotation Zrotation
						JOINT LeftLowArm
						{
							OFFSET 4.454147 -31.476913 -11.361926
							CHANNELS 3 Xrotation Yrotation Zrotation
							JOINT LeftHand
							{
								OFFSET 1.535147 -29.976295 0.112678
								CHANNELS 3 Xrotation Yrotation Zrotation
								End Site
								{
									OFFSET 0.335520 -6.551491 0.024622
								}
							}
						}
					}
				}
				JOINT RightCollar
				{
					OFFSET -3.501403 11.238556 7.952587
					CHANNELS 3 Xrotation Yrotation Zrotation
					JOINT RightUpArm
					{
						OFFSET -15.413916 -4.914307 -6.837917
						CHANNELS 3 Xrotation Yrotation Zrotation
						JOINT RightLowArm
						{
							OFFSET -6.271137 -32.467987 -6.799828
							CHANNELS 3 Xrotation Yrotation Zrotation
							JOINT RightHand
							{
								OFFSET -0.267187 -29.749298 3.982807
								CHANNELS 3 Xrotation Yrotation Zrotation
								End Site
								{
									OFFSET -0.058397 -6.502007 0.870484
								}
							}
						}
					}
				}
			}
		}
	}
	JOINT LeftUpLeg
	{
		OFFSET 10.008396 -0.067886 0.496537
		CHANNELS 3 Xrotation Yrotation Zrotation
		JOINT LeftLowLeg
		{
			OFFSET 2.265817 -20.964905 42.418468
			CHANNELS 3 Xrotation Yrotation Zrotation
			JOINT LeftFoot
			{
				OFFSET 1.338517 -19.853653 -40.057568
				CHANNELS 3 Xrotation Yrotation Zrotation
				JOINT LeftToe
				{
					OFFSET 2.117166 -23.192799 4.143821
					CHANNELS 3 Xrotation Yrotation Zrotation
					End Site
					{
						OFFSET 1.980424 -15.253531 17.971272
					}
				}
			}
		}
	}
	JOINT RightUpLeg
	{
		OFFSET -10.008400 0.067688 -0.496557
		CHANNELS 3 Xrotation Yrotation Zrotation
		JOINT RightLowLeg
		{
			OFFSET -6.703750 -44.715729 14.127092
			CHANNELS 3 Xrotation Yrotation Zrotation
			JOINT RightFoot
			{
				OFFSET 1.598610 13.383114 -42.648766
				CHANNELS 3 Xrotation Yrotation Zrotation
				JOINT RightToe
				{
					OFFSET 5.105077 -21.934595 -7.236633
					CHANNELS 3 Xrotation Yrotation Zrotation
					End Site
					{
						OFFSET 1.415853 -22.115114 8.274849
					}
				}
			}
		}
	}
}
MOTION
Frames: 10
Frame Time: 0.033333
-0.079023 105.454254 -1.111727 1.809417 0.829345 -0.744107 -25.325530 -0.767187 2.533958 -1.621620 -2.584602 2.386085 8.290725 -4.355442 -6.743504 -2.790097 3.791114 -0.628866 0.000003 0.000000 0.000000 1.367380 6.053737 1.672815 -2.729038 -7.180394 -3.358431 -0.836270 -4.412502 -0.285445 -0.000001 0.000001 0.000000 1.455190 -4.121974 -3.679792 3.366315 4.653200 5.065863 -2.819864 3.084260 4.711412 -0.000000 -0.000000 0.000001 67.963538 3.658032 -1.946228 -117.423629 11.813320 16.509286 10.503855 -13.081598 -22.666387 -0.000005 -0.000000 0.000000 20.870698 0.276945 6.539624 -108.660995 12.819857 -16.214789 30.169960 6.841746 2.314023 0.000002 -0.000000 0.000001 
-0.072588 105.458733 -1.112556 1.813580 0.765816 -0.705868 -24.880115 -0.752430 2.519127 -2.910398 -2.587315 2.376926 9.157393 -4.404632 -6.774217 -2.740815 3.775367 -0.614135 0.000004 -0.000000 0.000000 1.302930 6.002599 1.612800 -2.780542 -7.111301 -3.348409 -0.802975 -4.240907 -0.266937 -0.000001 -0.000001 0.000001 1.321668 -4.446014 -3.929592 3.494602 4.427034 5.091437 -2.666355 2.954213 4.923826 -0.000001 -0.000000 -0.000000 68.194248 3.618491 -1.996954 -117.493228 11.763444 16.492714 10.774057 -13.131295 -22.687377 -0.000001 0.000001 0.000000 20.752406 0.264360 6.453752 -108.424253 12.808492 -16.102734 30.369398 6.901776 2.567317 0.000004 0.000001 0.000000 
-0.059778 105.459930 -1.115451 1.527362 0.914128 -0.713470 -24.187544 -0.746200 2.497212 -3.231523 -2.558143 2.364999 9.246372 -4.322536 -6.707436 -2.740456 3.622705 -0.503265 0.000001 -0.000000 0.000000 1.374212 5.544018 1.551576 -2.938554 -7.201850 -3.489864 -0.949874 -4.274441 -0.054860 0.000000 -0.000001 0.000001 1.267545 -4.675177 -4.053758 3.247615 4.621675 5.216922 -2.597048 2.926165 4.899716 0.000001 -0.000004 0.000000 68.404317 3.670446 -1.982791 -117.322733 11.832107 16.393412 10.778436 -13.048607 -22.648033 0.000001 0.000000 -0.000001 20.881954 0.263343 6.446491 -108.256791 12.816129 -15.991771 30.407005 6.862479 2.672713 0.000000 -0.000001 0.000001 
-0.048190 105.457626 -1.115828 1.560665 0.861782 -0.788860 -23.947190 -0.781280 2.534735 -4.127345 -2.559265 2.398678 9.932330 -4.280124 -6.754010 -2.906867 3.525099 -0.366597 0.000001 0.000000 0.000001 1.538302 5.257512 1.622021 -2.969616 -7.336178 -3.697531 -0.855523 -4.507635 0.089799 -0.000002 0.000001 0.000002 1.340173 -4.782936 -4.282024 3.386956 4.735365 5.361207 -2.945914 3.195588 4.925635 -0.000001 -0.000002 -0.000001 68.424883 3.706174 -1.952249 -117.180119 11.824866 16.397879 10.715539 -13.061373 -22.640334 0.000002 0.000000 -0.000000 21.132069 0.251728 6.415093 -108.394426 12.676443 -16.042890 30.060004 6.812142 2.746694 0.000000 0.000001 0.000001 
-0.029071 105.457222 -1.122429 1.687106 1.104254 -0.860575 -24.388095 -0.764076 2.560196 -3.465256 -2.645684 2.421706 9.512364 -4.644399 -6.859297 -2.731216 3.647709 -0.515824 0.000001 0.000000 0.000000 1.359836 5.600734 1.948983 -2.898271 -7.106297 -3.726921 -0.953309 -4.364305 -0.247322 0.000000 -0.000002 0.000000 1.249015 -4.641342 -4.337560 3.464298 4.529591 5.294161 -2.562807 3.098347 5.058387 -0.000002 -0.000006 -0.000002 68.267468 3.801615 -1.926737 -117.319851 11.912086 16.455814 10.885345 -13.172536 -22.709990 -0.000001 0.000000 -0.000000 21.273809 0.246099 6.482919 -108.864179 12.727901 -16.057093 30.438663 6.944790 2.722665 0.000002 -0.000001 -0.000001 
-0.004996 105.460098 -1.130219 1.597362 1.137703 -0.880624 -24.234484 -0.782018 2.571951 -3.518345 -2.573974 2.387683 9.551665 -4.786073 -6.907238 -2.396395 3.643590 -0.486317 0.000003 0.000000 0.000000 1.328435 5.772975 1.958565 -2.618862 -6.945514 -3.601183 -0.987923 -4.352838 -0.310019 -0.000000 -0.000006 -0.000000 1.269337 -4.579673 -4.371429 3.645836 4.354466 5.215797 -2.546414 3.161594 5.120433 -0.000001 -0.000002 -0.000000 68.468917 3.762661 -1.965601 -117.260360 11.792144 16.472478 10.808710 -13.276511 -22.975718 -0.000003 0.000000 -0.000001 21.391329 0.206017 6.397483 -109.025003 12.627935 -16.019905 30.503471 6.797847 2.505769 -0.000000 -0.000003 0.000000 
0.022058 105.463539 -1.137934 1.835975 0.927811 -0.975489 -24.569760 -0.799010 2.578775 -2.141971 -2.561197 2.387689 8.420677 -4.492475 -6.749531 -2.013726 3.572483 -0.417730 0.000001 -0.000000 0.000000 1.384471 5.783834 2.328567 -2.509053 -6.886076 -3.700088 -0.974370 -4.266945 -0.764431 0.000002 -0.000001 0.000000 1.253769 -4.414154 -4.734602 3.880786 4.250677 5.439092 -2.311905 3.163375 5.218382 0.000001 -0.000000 -0.000000 68.630642 3.865117 -1.890977 -117.595504 11.932613 16.412398 11.030835 -13.362227 -22.940777 -0.000003 -0.000000 -0.000001 20.858621 0.275413 6.409736 -108.923779 12.688296 -15.994129 30.828619 6.905084 2.705916 0.000004 -0.000001 0.000000 
0.062055 105.469582 -1.143909 1.809376 0.898009 -0.989284 -25.310960 -0.801826 2.558939 -0.214674 -2.659891 2.442201 7.259816 -4.499569 -6.785290 -2.168640 3.638132 -0.465366 0.000003 -0.000000 0.000001 1.505715 6.021586 2.292570 -2.745005 -7.257156 -3.895547 -1.303057 -4.703900 -0.466012 -0.000001 -0.000001 -0.000000 1.445774 -4.198650 -4.655751 3.697512 4.659238 5.519563 -2.508804 3.434436 5.047859 0.000001 -0.000002 0.000000 68.615527 3.828778 -1.899692 -117.577253 12.022915 16.441387 11.149014 -13.440634 -22.930084 -0.000005 0.000000 -0.000001 20.957184 0.268755 6.350916 -108.550837 12.681151 -16.112450 31.046072 7.159056 3.036479 0.000003 -0.000001 0.000001 
0.104445 105.469070 -1.143573 1.680073 1.211813 -1.225405 -24.746802 -0.853276 2.638725 -0.932148 -2.796734 2.531027 7.583710 -4.487054 -6.837411 -2.236949 3.412165 -0.385489 0.000004 -0.000000 0.000000 1.574045 5.731410 1.983100 -2.904949 -7.368787 -3.733419 -1.447804 -4.577745 -0.462113 -0.000001 0.000001 0.000000 1.412835 -4.582103 -4.552813 3.817575 4.566986 5.288263 -2.802879 3.247081 5.146169 -0.000001 -0.000006 0.000000 68.635102 4.034839 -1.828148 -116.815168 11.871880 16.317059 10.809432 -13.390236 -23.057998 -0.000001 0.000000 0.000000 20.625042 0.352649 6.511433 -107.788294 12.518350 -16.055207 30.675578 7.015598 2.772256 0.000002 -0.000001 -0.000000 
0.146795 105.473801 -1.150319 1.620625 1.293433 -1.281182 -24.281454 -0.817864 2.607947 -2.591712 -2.742653 2.476881 8.922227 -4.690043 -6.847213 -2.333856 3.195313 -0.452883 0.000003 0.000000 0.000001 1.508069 5.694729 1.985364 -3.000345 -7.381562 -3.617758 -1.151882 -4.479439 -0.649514 0.000000 0.000003 0.000001 1.491687 -3.722777 -4.404979 3.857923 4.422488 5.400004 -2.630907 3.348149 4.868862 -0.000000 -0.000004 0.000002 68.769623 4.132477 -1.847377 -116.831916 11.940957 16.318649 11.111972 -13.507841 -23.126577 -0.000003 -0.000001 0.000000 20.579775 0.326879 6.514504 -107.904080 12.432982 -16.131689 30.542492 7.094485 2.806976 0.000000 -0.000000 0.000001 
